<svg xmlns="http://www.w3.org/2000/svg" width="18.005" height="18.495" viewBox="0 0 18.005 18.495">
  <g id="Component_14_1" data-name="Component 14 – 1" transform="translate(0)">
    <g id="Group_15" data-name="Group 15" transform="translate(-2.999 -2.505)">
      <g id="Group_14" data-name="Group 14">
        <path id="Path_72" data-name="Path 72" d="M19.93,8.21l-3.6,1.68L14,7.7V6.3l2.33-2.19,3.6,1.68a.752.752,0,1,0,.64-1.36L16.65,2.6a.993.993,0,0,0-1.13.2L13.78,4.4A.975.975,0,0,0,13,4a1,1,0,0,0-1,1V6H8.82A2.931,2.931,0,0,0,5.4,4.07,3.126,3.126,0,0,0,3.04,6.5,3,3,0,0,0,4.52,9.58L7.08,18H4v3H17V18H13.38L8.41,8.77A3.163,3.163,0,0,0,8.82,8H12V9a1,1,0,0,0,1,1,.975.975,0,0,0,.78-.4l1.74,1.6a.993.993,0,0,0,1.13.2l3.92-1.83a.745.745,0,0,0,.36-1A.753.753,0,0,0,19.93,8.21ZM6,8A1,1,0,1,1,7,7,1,1,0,0,1,6,8Z"/>
      </g>
    </g>
  </g>
</svg>
